<svg id="visual" viewBox="0 0 960 540" width="960" height="540" xmlns="http://www.w3.org/2000/svg" xmlns:xlink="http://www.w3.org/1999/xlink" version="1.1"><path d="M0 234L16 240.7C32 247.3 64 260.7 96 267.2C128 273.7 160 273.3 192 270.8C224 268.3 256 263.7 288 270.2C320 276.7 352 294.3 384 298.5C416 302.7 448 293.3 480 283.8C512 274.3 544 264.7 576 263.8C608 263 640 271 672 279.3C704 287.7 736 296.3 768 289.2C800 282 832 259 864 245.7C896 232.3 928 228.7 944 226.8L960 225L960 541L944 541C928 541 896 541 864 541C832 541 800 541 768 541C736 541 704 541 672 541C640 541 608 541 576 541C544 541 512 541 480 541C448 541 416 541 384 541C352 541 320 541 288 541C256 541 224 541 192 541C160 541 128 541 96 541C64 541 32 541 16 541L0 541Z" fill="#003eff"></path><path d="M0 308L16 304.2C32 300.3 64 292.7 96 291C128 289.3 160 293.7 192 294C224 294.3 256 290.7 288 300.2C320 309.7 352 332.3 384 344.5C416 356.7 448 358.3 480 355C512 351.7 544 343.3 576 331C608 318.7 640 302.3 672 304.7C704 307 736 328 768 331.8C800 335.7 832 322.3 864 320C896 317.7 928 326.3 944 330.7L960 335L960 541L944 541C928 541 896 541 864 541C832 541 800 541 768 541C736 541 704 541 672 541C640 541 608 541 576 541C544 541 512 541 480 541C448 541 416 541 384 541C352 541 320 541 288 541C256 541 224 541 192 541C160 541 128 541 96 541C64 541 32 541 16 541L0 541Z" fill="#5137ff"></path><path d="M0 345L16 354.8C32 364.7 64 384.3 96 392C128 399.7 160 395.3 192 384.2C224 373 256 355 288 357C320 359 352 381 384 384.2C416 387.3 448 371.7 480 363C512 354.3 544 352.7 576 350C608 347.3 640 343.7 672 344C704 344.3 736 348.7 768 348C800 347.3 832 341.7 864 343.5C896 345.3 928 354.7 944 359.3L960 364L960 541L944 541C928 541 896 541 864 541C832 541 800 541 768 541C736 541 704 541 672 541C640 541 608 541 576 541C544 541 512 541 480 541C448 541 416 541 384 541C352 541 320 541 288 541C256 541 224 541 192 541C160 541 128 541 96 541C64 541 32 541 16 541L0 541Z" fill="#742eff"></path><path d="M0 391L16 390.7C32 390.3 64 389.7 96 392.8C128 396 160 403 192 413.3C224 423.7 256 437.3 288 438.2C320 439 352 427 384 427.7C416 428.3 448 441.7 480 447.5C512 453.3 544 451.7 576 449.5C608 447.3 640 444.7 672 440.7C704 436.7 736 431.3 768 430.3C800 429.3 832 432.7 864 437.8C896 443 928 450 944 453.5L960 457L960 541L944 541C928 541 896 541 864 541C832 541 800 541 768 541C736 541 704 541 672 541C640 541 608 541 576 541C544 541 512 541 480 541C448 541 416 541 384 541C352 541 320 541 288 541C256 541 224 541 192 541C160 541 128 541 96 541C64 541 32 541 16 541L0 541Z" fill="#9120ff"></path><path d="M0 451L16 459.5C32 468 64 485 96 485.5C128 486 160 470 192 462.8C224 455.7 256 457.3 288 463.3C320 469.3 352 479.7 384 477.3C416 475 448 460 480 459.3C512 458.7 544 472.3 576 477C608 481.7 640 477.3 672 478.7C704 480 736 487 768 485.3C800 483.7 832 473.3 864 472.7C896 472 928 481 944 485.5L960 490L960 541L944 541C928 541 896 541 864 541C832 541 800 541 768 541C736 541 704 541 672 541C640 541 608 541 576 541C544 541 512 541 480 541C448 541 416 541 384 541C352 541 320 541 288 541C256 541 224 541 192 541C160 541 128 541 96 541C64 541 32 541 16 541L0 541Z" fill="#aa00ff"></path></svg>