<svg id="visual" viewBox="0 0 960 540" width="960" height="540" xmlns="http://www.w3.org/2000/svg" xmlns:xlink="http://www.w3.org/1999/xlink" version="1.1"><path d="M0 247L16 253.3C32 259.7 64 272.3 96 269.8C128 267.3 160 249.7 192 252.5C224 255.3 256 278.7 288 289.3C320 300 352 298 384 285.2C416 272.3 448 248.7 480 237.8C512 227 544 229 576 238.2C608 247.3 640 263.7 672 271.5C704 279.3 736 278.7 768 281.5C800 284.3 832 290.7 864 288.7C896 286.7 928 276.3 944 271.2L960 266L960 0L944 0C928 0 896 0 864 0C832 0 800 0 768 0C736 0 704 0 672 0C640 0 608 0 576 0C544 0 512 0 480 0C448 0 416 0 384 0C352 0 320 0 288 0C256 0 224 0 192 0C160 0 128 0 96 0C64 0 32 0 16 0L0 0Z" fill="#fcaf3c"></path><path d="M0 219L16 218.7C32 218.3 64 217.7 96 212.5C128 207.3 160 197.7 192 201C224 204.3 256 220.7 288 213C320 205.3 352 173.7 384 171.7C416 169.7 448 197.3 480 200C512 202.7 544 180.3 576 166.2C608 152 640 146 672 157C704 168 736 196 768 214.3C800 232.7 832 241.3 864 233.8C896 226.3 928 202.7 944 190.8L960 179L960 0L944 0C928 0 896 0 864 0C832 0 800 0 768 0C736 0 704 0 672 0C640 0 608 0 576 0C544 0 512 0 480 0C448 0 416 0 384 0C352 0 320 0 288 0C256 0 224 0 192 0C160 0 128 0 96 0C64 0 32 0 16 0L0 0Z" fill="#f38f25"></path><path d="M0 161L16 159.5C32 158 64 155 96 157.8C128 160.7 160 169.3 192 165C224 160.7 256 143.3 288 131.5C320 119.7 352 113.3 384 119C416 124.7 448 142.3 480 144.8C512 147.3 544 134.7 576 131.8C608 129 640 136 672 132.5C704 129 736 115 768 119C800 123 832 145 864 160.2C896 175.3 928 183.7 944 187.8L960 192L960 0L944 0C928 0 896 0 864 0C832 0 800 0 768 0C736 0 704 0 672 0C640 0 608 0 576 0C544 0 512 0 480 0C448 0 416 0 384 0C352 0 320 0 288 0C256 0 224 0 192 0C160 0 128 0 96 0C64 0 32 0 16 0L0 0Z" fill="#e86e14"></path><path d="M0 112L16 112.5C32 113 64 114 96 107.8C128 101.7 160 88.3 192 85.2C224 82 256 89 288 93.5C320 98 352 100 384 103C416 106 448 110 480 117.5C512 125 544 136 576 128.8C608 121.7 640 96.3 672 94C704 91.7 736 112.3 768 119C800 125.7 832 118.3 864 111.3C896 104.3 928 97.7 944 94.3L960 91L960 0L944 0C928 0 896 0 864 0C832 0 800 0 768 0C736 0 704 0 672 0C640 0 608 0 576 0C544 0 512 0 480 0C448 0 416 0 384 0C352 0 320 0 288 0C256 0 224 0 192 0C160 0 128 0 96 0C64 0 32 0 16 0L0 0Z" fill="#dc490b"></path><path d="M0 59L16 56.5C32 54 64 49 96 51.7C128 54.3 160 64.7 192 69.2C224 73.7 256 72.3 288 70.2C320 68 352 65 384 65C416 65 448 68 480 68.3C512 68.7 544 66.3 576 64.5C608 62.7 640 61.3 672 61.3C704 61.3 736 62.7 768 60.5C800 58.3 832 52.7 864 53.5C896 54.3 928 61.7 944 65.3L960 69L960 0L944 0C928 0 896 0 864 0C832 0 800 0 768 0C736 0 704 0 672 0C640 0 608 0 576 0C544 0 512 0 480 0C448 0 416 0 384 0C352 0 320 0 288 0C256 0 224 0 192 0C160 0 128 0 96 0C64 0 32 0 16 0L0 0Z" fill="#cf0d0d"></path></svg>