<svg id="visual" viewBox="0 0 960 2160" width="960" height="2160" xmlns="http://www.w3.org/2000/svg" xmlns:xlink="http://www.w3.org/1999/xlink" version="1.1"><g stroke-width="1" stroke-linejoin="bevel"><path d="M487 1036L543 1041L541 926Z" fill="#071b1e" stroke="#643c06"></path><path d="M541 926L417 968L487 1036Z" fill="#071b1e" stroke="#643c06"></path><path d="M541 926L451 905L417 968Z" fill="#071d20" stroke="#643c06"></path><path d="M541 926L493 856L451 905Z" fill="#072d32" stroke="#643c06"></path><path d="M417 968L416 1064L487 1036Z" fill="#09373d" stroke="#643c06"></path><path d="M487 1036L501 1240L543 1041Z" fill="#052327" stroke="#643c06"></path><path d="M543 1041L687 970L541 926Z" fill="#0c4148" stroke="#643c06"></path><path d="M541 926L566 780L493 856Z" fill="#062023" stroke="#643c06"></path><path d="M614 1227L681 1094L543 1041Z" fill="#115760" stroke="#643c06"></path><path d="M543 1041L681 1094L687 970Z" fill="#071d20" stroke="#643c06"></path><path d="M704 838L566 780L541 926Z" fill="#115760" stroke="#643c06"></path><path d="M451 905L296 950L417 968Z" fill="#0e4c54" stroke="#643c06"></path><path d="M417 968L296 950L416 1064Z" fill="#09373d" stroke="#643c06"></path><path d="M410 779L296 950L451 905Z" fill="#0c4148" stroke="#643c06"></path><path d="M410 779L451 905L493 856Z" fill="#071e22" stroke="#643c06"></path><path d="M566 780L410 779L493 856Z" fill="#052327" stroke="#643c06"></path><path d="M763 777L704 838L840 794Z" fill="#072d32" stroke="#643c06"></path><path d="M687 970L704 838L541 926Z" fill="#071b1e" stroke="#643c06"></path><path d="M421 668L401 769L410 779Z" fill="#071d20" stroke="#643c06"></path><path d="M410 779L220 851L296 950Z" fill="#071d20" stroke="#643c06"></path><path d="M359 1215L501 1240L416 1064Z" fill="#071b1e" stroke="#643c06"></path><path d="M416 1064L501 1240L487 1036Z" fill="#115760" stroke="#643c06"></path><path d="M501 1240L614 1227L543 1041Z" fill="#071b1e" stroke="#643c06"></path><path d="M704 838L644 751L566 780Z" fill="#071b1e" stroke="#643c06"></path><path d="M566 780L421 668L410 779Z" fill="#071b1e" stroke="#643c06"></path><path d="M214 1124L359 1215L416 1064Z" fill="#0c4148" stroke="#643c06"></path><path d="M501 1240L568 1262L614 1227Z" fill="#052327" stroke="#643c06"></path><path d="M490 1377L568 1262L501 1240Z" fill="#115760" stroke="#643c06"></path><path d="M614 1227L701 1206L681 1094Z" fill="#062023" stroke="#643c06"></path><path d="M871 946L704 838L687 970Z" fill="#062023" stroke="#643c06"></path><path d="M730 1324L701 1206L614 1227Z" fill="#09373d" stroke="#643c06"></path><path d="M824 1095L687 970L681 1094Z" fill="#062125" stroke="#643c06"></path><path d="M704 838L763 777L644 751Z" fill="#09373d" stroke="#643c06"></path><path d="M793 1204L824 1095L681 1094Z" fill="#062125" stroke="#643c06"></path><path d="M401 769L220 851L410 779Z" fill="#0e4c54" stroke="#643c06"></path><path d="M296 950L214 1124L416 1064Z" fill="#071b1e" stroke="#643c06"></path><path d="M646 645L421 668L566 780Z" fill="#09373d" stroke="#643c06"></path><path d="M230 664L159 758L220 851Z" fill="#071b1e" stroke="#643c06"></path><path d="M646 645L566 780L644 751Z" fill="#062023" stroke="#643c06"></path><path d="M108 973L214 1124L296 950Z" fill="#0e4c54" stroke="#643c06"></path><path d="M730 1324L793 1204L701 1206Z" fill="#062023" stroke="#643c06"></path><path d="M701 1206L793 1204L681 1094Z" fill="#062125" stroke="#643c06"></path><path d="M960 972L871 946L824 1095Z" fill="#115760" stroke="#643c06"></path><path d="M824 1095L871 946L687 970Z" fill="#071e22" stroke="#643c06"></path><path d="M763 777L646 645L644 751Z" fill="#071d20" stroke="#643c06"></path><path d="M88 1046L193 1143L214 1124Z" fill="#062125" stroke="#643c06"></path><path d="M214 1124L270 1281L359 1215Z" fill="#072d32" stroke="#643c06"></path><path d="M270 1281L394 1325L359 1215Z" fill="#071d20" stroke="#643c06"></path><path d="M359 1215L394 1325L501 1240Z" fill="#115760" stroke="#643c06"></path><path d="M568 1262L730 1324L614 1227Z" fill="#0e4c54" stroke="#643c06"></path><path d="M871 946L840 794L704 838Z" fill="#071b1e" stroke="#643c06"></path><path d="M763 777L782 628L646 645Z" fill="#062023" stroke="#643c06"></path><path d="M193 1143L270 1281L214 1124Z" fill="#052327" stroke="#643c06"></path><path d="M335 1422L490 1377L394 1325Z" fill="#071b1e" stroke="#643c06"></path><path d="M394 1325L490 1377L501 1240Z" fill="#071b1e" stroke="#643c06"></path><path d="M592 1396L730 1324L568 1262Z" fill="#071d20" stroke="#643c06"></path><path d="M159 758L126 878L220 851Z" fill="#09373d" stroke="#643c06"></path><path d="M220 851L108 973L296 950Z" fill="#071e22" stroke="#643c06"></path><path d="M126 878L108 973L220 851Z" fill="#062125" stroke="#643c06"></path><path d="M490 1377L592 1396L568 1262Z" fill="#0c4148" stroke="#643c06"></path><path d="M230 664L220 851L401 769Z" fill="#0c4148" stroke="#643c06"></path><path d="M421 668L230 664L401 769Z" fill="#052327" stroke="#643c06"></path><path d="M228 645L230 664L361 555Z" fill="#062125" stroke="#643c06"></path><path d="M193 1143L146 1203L270 1281Z" fill="#062023" stroke="#643c06"></path><path d="M88 1046L146 1203L193 1143Z" fill="#052327" stroke="#643c06"></path><path d="M0 1037L88 1046L108 973Z" fill="#0c4148" stroke="#643c06"></path><path d="M108 973L88 1046L214 1124Z" fill="#072d32" stroke="#643c06"></path><path d="M960 1111L960 972L824 1095Z" fill="#062023" stroke="#643c06"></path><path d="M871 946L960 880L840 794Z" fill="#071b1e" stroke="#643c06"></path><path d="M960 1111L824 1095L960 1183Z" fill="#071e22" stroke="#643c06"></path><path d="M864 671L782 628L763 777Z" fill="#062125" stroke="#643c06"></path><path d="M646 645L509 541L421 668Z" fill="#0e4c54" stroke="#643c06"></path><path d="M864 671L763 777L840 794Z" fill="#071e22" stroke="#643c06"></path><path d="M525 497L509 541L646 645Z" fill="#062023" stroke="#643c06"></path><path d="M361 555L230 664L421 668Z" fill="#071e22" stroke="#643c06"></path><path d="M230 664L151 648L159 758Z" fill="#0c4148" stroke="#643c06"></path><path d="M960 972L960 880L871 946Z" fill="#09373d" stroke="#643c06"></path><path d="M509 541L361 555L421 668Z" fill="#0e4c54" stroke="#643c06"></path><path d="M782 628L726 575L646 645Z" fill="#062023" stroke="#643c06"></path><path d="M960 1183L824 1095L793 1204Z" fill="#0c4148" stroke="#643c06"></path><path d="M960 701L864 671L840 794Z" fill="#062023" stroke="#643c06"></path><path d="M782 628L807 497L726 575Z" fill="#0c4148" stroke="#643c06"></path><path d="M246 1464L335 1422L270 1281Z" fill="#09373d" stroke="#643c06"></path><path d="M270 1281L335 1422L394 1325Z" fill="#062023" stroke="#643c06"></path><path d="M490 1377L508 1491L592 1396Z" fill="#071b1e" stroke="#643c06"></path><path d="M960 1275L960 1183L793 1204Z" fill="#0e4c54" stroke="#643c06"></path><path d="M726 575L525 497L646 645Z" fill="#09373d" stroke="#643c06"></path><path d="M509 541L525 497L361 555Z" fill="#0c4148" stroke="#643c06"></path><path d="M730 1324L862 1338L793 1204Z" fill="#0e4c54" stroke="#643c06"></path><path d="M771 1437L862 1338L730 1324Z" fill="#052327" stroke="#643c06"></path><path d="M168 494L151 648L228 645Z" fill="#062125" stroke="#643c06"></path><path d="M228 645L151 648L230 664Z" fill="#062023" stroke="#643c06"></path><path d="M0 795L0 906L126 878Z" fill="#09373d" stroke="#643c06"></path><path d="M0 906L0 1037L108 973Z" fill="#062023" stroke="#643c06"></path><path d="M0 1234L105 1274L146 1203Z" fill="#115760" stroke="#643c06"></path><path d="M146 1203L105 1274L270 1281Z" fill="#052327" stroke="#643c06"></path><path d="M457 1510L508 1491L490 1377Z" fill="#0e4c54" stroke="#643c06"></path><path d="M592 1396L771 1437L730 1324Z" fill="#071b1e" stroke="#643c06"></path><path d="M585 1512L771 1437L592 1396Z" fill="#062125" stroke="#643c06"></path><path d="M0 906L108 973L126 878Z" fill="#062125" stroke="#643c06"></path><path d="M88 1046L0 1234L146 1203Z" fill="#072d32" stroke="#643c06"></path><path d="M960 880L960 701L840 794Z" fill="#062125" stroke="#643c06"></path><path d="M864 671L807 497L782 628Z" fill="#071b1e" stroke="#643c06"></path><path d="M0 795L126 878L159 758Z" fill="#09373d" stroke="#643c06"></path><path d="M960 1454L960 1275L862 1338Z" fill="#072d32" stroke="#643c06"></path><path d="M862 1338L960 1275L793 1204Z" fill="#071e22" stroke="#643c06"></path><path d="M335 1422L457 1510L490 1377Z" fill="#071d20" stroke="#643c06"></path><path d="M508 1491L585 1512L592 1396Z" fill="#0c4148" stroke="#643c06"></path><path d="M386 1572L457 1510L335 1422Z" fill="#062023" stroke="#643c06"></path><path d="M604 1650L585 1512L508 1491Z" fill="#0e4c54" stroke="#643c06"></path><path d="M390 388L300 498L361 555Z" fill="#0c4148" stroke="#643c06"></path><path d="M361 555L300 498L228 645Z" fill="#062125" stroke="#643c06"></path><path d="M105 1274L246 1464L270 1281Z" fill="#071b1e" stroke="#643c06"></path><path d="M0 766L0 795L159 758Z" fill="#071e22" stroke="#643c06"></path><path d="M0 766L159 758L151 648Z" fill="#115760" stroke="#643c06"></path><path d="M771 1437L854 1427L862 1338Z" fill="#071d20" stroke="#643c06"></path><path d="M817 1528L854 1427L771 1437Z" fill="#071e22" stroke="#643c06"></path><path d="M0 545L0 766L151 648Z" fill="#0e4c54" stroke="#643c06"></path><path d="M726 575L575 422L525 497Z" fill="#052327" stroke="#643c06"></path><path d="M525 497L390 388L361 555Z" fill="#071d20" stroke="#643c06"></path><path d="M774 439L575 422L726 575Z" fill="#071d20" stroke="#643c06"></path><path d="M960 560L807 497L864 671Z" fill="#072d32" stroke="#643c06"></path><path d="M0 1037L0 1234L88 1046Z" fill="#0e4c54" stroke="#643c06"></path><path d="M105 1274L61 1382L246 1464Z" fill="#071d20" stroke="#643c06"></path><path d="M683 271L539 401L575 422Z" fill="#115760" stroke="#643c06"></path><path d="M575 422L539 401L525 497Z" fill="#062023" stroke="#643c06"></path><path d="M292 334L216 477L300 498Z" fill="#0e4c54" stroke="#643c06"></path><path d="M300 498L216 477L228 645Z" fill="#062125" stroke="#643c06"></path><path d="M960 457L774 439L807 497Z" fill="#115760" stroke="#643c06"></path><path d="M807 497L774 439L726 575Z" fill="#062023" stroke="#643c06"></path><path d="M246 1464L386 1572L335 1422Z" fill="#071b1e" stroke="#643c06"></path><path d="M457 1510L604 1650L508 1491Z" fill="#0e4c54" stroke="#643c06"></path><path d="M216 477L168 494L228 645Z" fill="#052327" stroke="#643c06"></path><path d="M0 1315L61 1382L105 1274Z" fill="#062125" stroke="#643c06"></path><path d="M246 1464L271 1593L386 1572Z" fill="#072d32" stroke="#643c06"></path><path d="M451 357L390 388L525 497Z" fill="#062023" stroke="#643c06"></path><path d="M216 477L106 324L168 494Z" fill="#09373d" stroke="#643c06"></path><path d="M960 701L960 560L864 671Z" fill="#062023" stroke="#643c06"></path><path d="M815 314L766 419L774 439Z" fill="#072d32" stroke="#643c06"></path><path d="M774 439L766 419L575 422Z" fill="#09373d" stroke="#643c06"></path><path d="M539 401L451 357L525 497Z" fill="#052327" stroke="#643c06"></path><path d="M0 1234L0 1315L105 1274Z" fill="#071b1e" stroke="#643c06"></path><path d="M752 1619L771 1437L585 1512Z" fill="#071b1e" stroke="#643c06"></path><path d="M752 1619L817 1528L771 1437Z" fill="#0e4c54" stroke="#643c06"></path><path d="M854 1427L960 1454L862 1338Z" fill="#0c4148" stroke="#643c06"></path><path d="M594 229L451 357L539 401Z" fill="#062023" stroke="#643c06"></path><path d="M0 519L0 545L168 494Z" fill="#062125" stroke="#643c06"></path><path d="M960 1516L960 1454L854 1427Z" fill="#0e4c54" stroke="#643c06"></path><path d="M66 1587L271 1593L246 1464Z" fill="#071d20" stroke="#643c06"></path><path d="M452 1694L604 1650L457 1510Z" fill="#0c4148" stroke="#643c06"></path><path d="M452 1694L457 1510L386 1572Z" fill="#071e22" stroke="#643c06"></path><path d="M817 1528L960 1516L854 1427Z" fill="#0c4148" stroke="#643c06"></path><path d="M604 1650L752 1619L585 1512Z" fill="#052327" stroke="#643c06"></path><path d="M271 1593L321 1634L386 1572Z" fill="#0c4148" stroke="#643c06"></path><path d="M168 494L0 545L151 648Z" fill="#052327" stroke="#643c06"></path><path d="M292 334L300 498L390 388Z" fill="#071b1e" stroke="#643c06"></path><path d="M960 560L960 457L807 497Z" fill="#052327" stroke="#643c06"></path><path d="M766 419L683 271L575 422Z" fill="#071b1e" stroke="#643c06"></path><path d="M419 241L292 334L390 388Z" fill="#115760" stroke="#643c06"></path><path d="M960 1648L960 1516L817 1528Z" fill="#062125" stroke="#643c06"></path><path d="M0 417L0 519L168 494Z" fill="#071b1e" stroke="#643c06"></path><path d="M321 1634L452 1694L386 1572Z" fill="#071e22" stroke="#643c06"></path><path d="M710 1724L817 1638L752 1619Z" fill="#0e4c54" stroke="#643c06"></path><path d="M710 1724L752 1619L604 1650Z" fill="#062023" stroke="#643c06"></path><path d="M752 1619L817 1638L817 1528Z" fill="#0c4148" stroke="#643c06"></path><path d="M815 314L683 271L766 419Z" fill="#062125" stroke="#643c06"></path><path d="M451 357L419 241L390 388Z" fill="#062125" stroke="#643c06"></path><path d="M0 1315L0 1499L61 1382Z" fill="#071b1e" stroke="#643c06"></path><path d="M61 1382L66 1587L246 1464Z" fill="#115760" stroke="#643c06"></path><path d="M271 1593L213 1713L321 1634Z" fill="#062125" stroke="#643c06"></path><path d="M321 1634L393 1743L452 1694Z" fill="#052327" stroke="#643c06"></path><path d="M960 355L815 314L774 439Z" fill="#052327" stroke="#643c06"></path><path d="M594 229L419 241L451 357Z" fill="#071b1e" stroke="#643c06"></path><path d="M106 324L0 417L168 494Z" fill="#071e22" stroke="#643c06"></path><path d="M0 1499L66 1587L61 1382Z" fill="#062125" stroke="#643c06"></path><path d="M683 271L594 229L539 401Z" fill="#071b1e" stroke="#643c06"></path><path d="M594 120L594 229L759 138Z" fill="#0c4148" stroke="#643c06"></path><path d="M652 1808L710 1724L604 1650Z" fill="#071d20" stroke="#643c06"></path><path d="M960 457L960 355L774 439Z" fill="#062125" stroke="#643c06"></path><path d="M815 314L825 244L683 271Z" fill="#071b1e" stroke="#643c06"></path><path d="M106 324L216 477L292 334Z" fill="#062125" stroke="#643c06"></path><path d="M213 1713L393 1743L321 1634Z" fill="#0c4148" stroke="#643c06"></path><path d="M452 1694L458 1752L604 1650Z" fill="#09373d" stroke="#643c06"></path><path d="M393 1743L458 1752L452 1694Z" fill="#0c4148" stroke="#643c06"></path><path d="M179 266L106 324L292 334Z" fill="#052327" stroke="#643c06"></path><path d="M419 241L334 226L292 334Z" fill="#072d32" stroke="#643c06"></path><path d="M340 122L334 226L419 241Z" fill="#052327" stroke="#643c06"></path><path d="M0 1499L0 1572L66 1587Z" fill="#072d32" stroke="#643c06"></path><path d="M66 1587L213 1713L271 1593Z" fill="#071e22" stroke="#643c06"></path><path d="M98 1730L213 1713L66 1587Z" fill="#0c4148" stroke="#643c06"></path><path d="M334 226L179 266L292 334Z" fill="#115760" stroke="#643c06"></path><path d="M804 1815L960 1648L817 1638Z" fill="#062023" stroke="#643c06"></path><path d="M817 1638L960 1648L817 1528Z" fill="#071d20" stroke="#643c06"></path><path d="M960 295L825 244L815 314Z" fill="#052327" stroke="#643c06"></path><path d="M960 355L960 295L815 314Z" fill="#115760" stroke="#643c06"></path><path d="M565 1902L652 1808L458 1752Z" fill="#0c4148" stroke="#643c06"></path><path d="M458 1752L652 1808L604 1650Z" fill="#071d20" stroke="#643c06"></path><path d="M710 1724L758 1793L817 1638Z" fill="#052327" stroke="#643c06"></path><path d="M474 1886L458 1752L393 1743Z" fill="#062125" stroke="#643c06"></path><path d="M652 1808L758 1793L710 1724Z" fill="#0e4c54" stroke="#643c06"></path><path d="M0 1712L98 1730L66 1587Z" fill="#115760" stroke="#643c06"></path><path d="M213 1713L279 1834L393 1743Z" fill="#0e4c54" stroke="#643c06"></path><path d="M759 138L594 229L683 271Z" fill="#062125" stroke="#643c06"></path><path d="M594 229L540 79L419 241Z" fill="#071d20" stroke="#643c06"></path><path d="M334 226L261 77L179 266Z" fill="#071d20" stroke="#643c06"></path><path d="M759 138L683 271L825 244Z" fill="#052327" stroke="#643c06"></path><path d="M663 1948L804 1815L758 1793Z" fill="#115760" stroke="#643c06"></path><path d="M758 1793L804 1815L817 1638Z" fill="#071e22" stroke="#643c06"></path><path d="M892 170L759 138L825 244Z" fill="#052327" stroke="#643c06"></path><path d="M540 79L340 122L419 241Z" fill="#0c4148" stroke="#643c06"></path><path d="M111 189L0 261L106 324Z" fill="#071d20" stroke="#643c06"></path><path d="M235 1877L279 1834L213 1713Z" fill="#0c4148" stroke="#643c06"></path><path d="M652 1808L663 1948L758 1793Z" fill="#071d20" stroke="#643c06"></path><path d="M111 189L106 324L179 266Z" fill="#071e22" stroke="#643c06"></path><path d="M106 324L0 261L0 417Z" fill="#062023" stroke="#643c06"></path><path d="M261 77L111 189L179 266Z" fill="#115760" stroke="#643c06"></path><path d="M0 1572L0 1712L66 1587Z" fill="#062023" stroke="#643c06"></path><path d="M235 1877L320 1885L279 1834Z" fill="#071d20" stroke="#643c06"></path><path d="M960 295L892 170L825 244Z" fill="#071e22" stroke="#643c06"></path><path d="M320 1885L474 1886L393 1743Z" fill="#052327" stroke="#643c06"></path><path d="M586 0L540 79L594 120Z" fill="#071e22" stroke="#643c06"></path><path d="M594 120L540 79L594 229Z" fill="#071e22" stroke="#643c06"></path><path d="M476 0L540 79L586 0Z" fill="#0e4c54" stroke="#643c06"></path><path d="M474 1886L565 1902L458 1752Z" fill="#0c4148" stroke="#643c06"></path><path d="M97 1807L213 1713L98 1730Z" fill="#062023" stroke="#643c06"></path><path d="M279 1834L320 1885L393 1743Z" fill="#052327" stroke="#643c06"></path><path d="M529 2031L663 1948L565 1902Z" fill="#062023" stroke="#643c06"></path><path d="M0 1712L97 1807L98 1730Z" fill="#0e4c54" stroke="#643c06"></path><path d="M97 1807L235 1877L213 1713Z" fill="#072d32" stroke="#643c06"></path><path d="M319 0L261 77L340 122Z" fill="#071b1e" stroke="#643c06"></path><path d="M340 122L261 77L334 226Z" fill="#0c4148" stroke="#643c06"></path><path d="M111 189L0 150L0 261Z" fill="#09373d" stroke="#643c06"></path><path d="M852 1922L960 1827L804 1815Z" fill="#071d20" stroke="#643c06"></path><path d="M804 1815L960 1827L960 1648Z" fill="#071d20" stroke="#643c06"></path><path d="M960 295L960 127L892 170Z" fill="#0c4148" stroke="#643c06"></path><path d="M824 0L745 0L759 138Z" fill="#052327" stroke="#643c06"></path><path d="M529 2031L565 1902L474 1886Z" fill="#072d32" stroke="#643c06"></path><path d="M565 1902L663 1948L652 1808Z" fill="#0c4148" stroke="#643c06"></path><path d="M529 2031L474 1886L365 2037Z" fill="#062125" stroke="#643c06"></path><path d="M94 78L0 150L111 189Z" fill="#052327" stroke="#643c06"></path><path d="M586 0L594 120L745 0Z" fill="#062023" stroke="#643c06"></path><path d="M540 79L476 0L340 122Z" fill="#0c4148" stroke="#643c06"></path><path d="M261 77L94 78L111 189Z" fill="#0e4c54" stroke="#643c06"></path><path d="M745 0L594 120L759 138Z" fill="#09373d" stroke="#643c06"></path><path d="M663 1948L852 1922L804 1815Z" fill="#071e22" stroke="#643c06"></path><path d="M852 1922L960 1882L960 1827Z" fill="#062125" stroke="#643c06"></path><path d="M213 0L94 78L261 77Z" fill="#0e4c54" stroke="#643c06"></path><path d="M476 0L319 0L340 122Z" fill="#071e22" stroke="#643c06"></path><path d="M97 1807L113 1949L235 1877Z" fill="#071d20" stroke="#643c06"></path><path d="M365 2037L474 1886L320 1885Z" fill="#052327" stroke="#643c06"></path><path d="M0 1712L0 1848L97 1807Z" fill="#09373d" stroke="#643c06"></path><path d="M824 0L759 138L892 170Z" fill="#062125" stroke="#643c06"></path><path d="M960 127L824 0L892 170Z" fill="#062023" stroke="#643c06"></path><path d="M319 0L213 0L261 77Z" fill="#062023" stroke="#643c06"></path><path d="M276 2016L320 1885L235 1877Z" fill="#072d32" stroke="#643c06"></path><path d="M663 1948L743 2026L852 1922Z" fill="#0e4c54" stroke="#643c06"></path><path d="M0 1848L113 1949L97 1807Z" fill="#071d20" stroke="#643c06"></path><path d="M160 1982L276 2016L235 1877Z" fill="#09373d" stroke="#643c06"></path><path d="M113 1949L160 1982L235 1877Z" fill="#071d20" stroke="#643c06"></path><path d="M276 2016L365 2037L320 1885Z" fill="#115760" stroke="#643c06"></path><path d="M604 2064L743 2026L663 1948Z" fill="#09373d" stroke="#643c06"></path><path d="M852 1922L960 2031L960 1882Z" fill="#062125" stroke="#643c06"></path><path d="M604 2064L663 1948L529 2031Z" fill="#0e4c54" stroke="#643c06"></path><path d="M960 127L960 0L824 0Z" fill="#0e4c54" stroke="#643c06"></path><path d="M213 0L76 0L94 78Z" fill="#062125" stroke="#643c06"></path><path d="M94 78L0 0L0 150Z" fill="#071e22" stroke="#643c06"></path><path d="M484 2160L604 2064L529 2031Z" fill="#0c4148" stroke="#643c06"></path><path d="M179 2160L403 2160L276 2016Z" fill="#115760" stroke="#643c06"></path><path d="M403 2160L484 2160L365 2037Z" fill="#0c4148" stroke="#643c06"></path><path d="M113 1949L0 2010L160 1982Z" fill="#052327" stroke="#643c06"></path><path d="M0 1848L0 1951L113 1949Z" fill="#052327" stroke="#643c06"></path><path d="M76 0L0 0L94 78Z" fill="#115760" stroke="#643c06"></path><path d="M869 2066L852 1922L743 2026Z" fill="#071b1e" stroke="#643c06"></path><path d="M869 2066L960 2031L852 1922Z" fill="#09373d" stroke="#643c06"></path><path d="M848 2160L869 2066L743 2026Z" fill="#09373d" stroke="#643c06"></path><path d="M0 1951L0 2010L113 1949Z" fill="#0c4148" stroke="#643c06"></path><path d="M365 2037L484 2160L529 2031Z" fill="#0e4c54" stroke="#643c06"></path><path d="M403 2160L365 2037L276 2016Z" fill="#0e4c54" stroke="#643c06"></path><path d="M604 2064L671 2160L743 2026Z" fill="#09373d" stroke="#643c06"></path><path d="M484 2160L599 2160L604 2064Z" fill="#071b1e" stroke="#643c06"></path><path d="M179 2160L276 2016L160 1982Z" fill="#062125" stroke="#643c06"></path><path d="M599 2160L671 2160L604 2064Z" fill="#072d32" stroke="#643c06"></path><path d="M869 2066L960 2160L960 2031Z" fill="#072d32" stroke="#643c06"></path><path d="M671 2160L848 2160L743 2026Z" fill="#062125" stroke="#643c06"></path><path d="M156 2160L179 2160L160 1982Z" fill="#071b1e" stroke="#643c06"></path><path d="M0 2010L156 2160L160 1982Z" fill="#09373d" stroke="#643c06"></path><path d="M848 2160L960 2160L869 2066Z" fill="#09373d" stroke="#643c06"></path><path d="M0 2010L0 2160L156 2160Z" fill="#071e22" stroke="#643c06"></path></g></svg>